<?xml version="1.0" encoding="UTF-8" standalone="no"?>
<svg width="512" height="512" viewBox="0 0 512 512" fill="none" xmlns="http://www.w3.org/2000/svg">
  <!-- Background Circle with Gradient - Darker -->
  <circle cx="256" cy="256" r="256" fill="#2A0E5A"/>
  
  <!-- Rhenvox R Logo - Even Bolder -->
  <path d="M170 120H320C369.706 120 410 160.294 410 210C410 259.706 369.706 300 320 300H250L320 390H230L170 300V390H120V120H170ZM170 170V250H320C341.539 250 359 232.539 359 210C359 187.461 341.539 170 320 170H170Z" fill="#7A30DC" stroke="#7A30DC" stroke-width="4"/>
  
  <!-- White overlay for visibility -->
  <path d="M170 120H320C369.706 120 410 160.294 410 210C410 259.706 369.706 300 320 300H250L320 390H230L170 300V390H120V120H170ZM170 170V250H320C341.539 250 359 232.539 359 210C359 187.461 341.539 170 320 170H170Z" fill="white" fill-opacity="0.9"/>
  
  <!-- Glow Effect -->
  <circle cx="256" cy="256" r="240" stroke="#7A30DC" stroke-width="12" stroke-opacity="0.8"/>
</svg> 